<?xml version="1.0" encoding="utf-8"?>
<!-- Generator: Adobe Illustrator 16.0.4, SVG Export Plug-In . SVG Version: 6.00 Build 0)  -->
<!DOCTYPE svg PUBLIC "-//W3C//DTD SVG 1.1//EN" "http://www.w3.org/Graphics/SVG/1.1/DTD/svg11.dtd">
<svg version="1.1" id="Layer_1" xmlns="http://www.w3.org/2000/svg" xmlns:xlink="http://www.w3.org/1999/xlink" x="0px" y="0px"
	 width="361.866px" height="135.731px" viewBox="0 0 361.866 135.731" enable-background="new 0 0 361.866 135.731"
	 xml:space="preserve">
<g>
	<defs>
		<rect id="SVGID_1_" x="-3" width="364" height="126"/>
	</defs>
	<clipPath id="SVGID_2_">
		<use xlink:href="#SVGID_1_"  overflow="visible"/>
	</clipPath>
	<g clip-path="url(#SVGID_2_)">
		<g>
			<g>
				<polyline fill="#3C6482" points="169,-1 334.963,-1 307.807,90.578 170.157,124 170.959,124 33.565,90.578 6.666,-1 170,-1 				
					"/>
			</g>
			<g>
				<polyline fill="#2D4051" points="170,0 331.334,0 304.81,89.402 170.358,119 171.142,119 36.94,89.402 10.667,0 171,0 				"/>
			</g>
			<g>
				<g opacity="0.35">
					<text transform="matrix(1 0 0 1 67.002 64.229)" font-family="'Cabin-Bold'" font-size="44.1904">McClintock</text>
				</g>
				<g>
					<text transform="matrix(1 0 0 1 66.002 63.229)" fill="#FFFFFF" font-family="'Cabin-Bold'" font-size="44.1904">McClintock</text>
				</g>
			</g>
			<g opacity="0.9">
				<g opacity="0.35">
					<text transform="matrix(1 0 0 1 68 83.291)" font-family="'Cabin-Regular'" font-size="15.5581">4TH DISTRICT CONGRESSMAN</text>
				</g>
				<g>
					<text transform="matrix(1 0 0 1 67 82.291)" fill="#EBEBEB" font-family="'Cabin-Regular'" font-size="15.5581">4TH DISTRICT CONGRESSMAN</text>
				</g>
			</g>
			<polygon fill="#9B372A" points="3.334,0 6.604,13.667 9.297,27.334 358.5,0 			"/>
			<polygon fill="#702D28" points="358.5,0 331.75,9.25 334.125,1.875 			"/>
			<polygon fill="#174972" points="96.5,0 106.25,19.75 9.297,27.334 6.604,13.667 3.334,0 			"/>
			<polygon fill="#FFFFFF" points="103.25,14 301.75,0 263,0 99.25,5.75 			"/>
			<polygon fill="#FFFFFF" points="20.341,9.534 22.573,12.876 26.591,12.932 24.102,16.087 25.29,19.926 21.52,18.533 
				18.236,20.849 18.396,16.833 15.179,14.427 19.046,13.337 			"/>
			<polygon fill="#FFFFFF" points="40.341,7.534 42.573,10.876 46.591,10.932 44.102,14.087 45.29,17.926 41.52,16.533 
				38.236,18.849 38.396,14.833 35.179,12.427 39.046,11.337 			"/>
			<polygon fill="#FFFFFF" points="86.341,4.534 88.573,7.876 92.591,7.932 90.102,11.087 91.29,14.926 87.52,13.533 84.236,15.849 
				84.396,11.833 81.179,9.427 85.046,8.337 			"/>
			<polygon fill="#FFFFFF" points="63.341,5.534 65.573,8.876 69.591,8.932 67.102,12.087 68.29,15.926 64.52,14.533 61.236,16.849 
				61.396,12.833 58.179,10.427 62.046,9.337 			"/>
			<g>
				<defs>
					<rect id="SVGID_3_" x="14" width="71" height="5"/>
				</defs>
				<clipPath id="SVGID_4_">
					<use xlink:href="#SVGID_3_"  overflow="visible"/>
				</clipPath>
				<g clip-path="url(#SVGID_4_)">
					<polygon fill="#FFFFFF" points="29.341,-6.466 31.573,-3.124 35.591,-3.068 33.102,0.087 34.29,3.926 30.52,2.533 
						27.236,4.849 27.396,0.833 24.179,-1.573 28.046,-2.663 					"/>
					<polygon fill="#FFFFFF" points="52.341,-8.466 54.573,-5.124 58.591,-5.068 56.102,-1.913 57.29,1.926 53.52,0.533 
						50.236,2.849 50.396,-1.167 47.179,-3.573 51.046,-4.663 					"/>
					<polygon fill="#FFFFFF" points="76.341,-9.466 78.573,-6.124 82.591,-6.068 80.102,-2.913 81.29,0.926 77.52,-0.467 
						74.236,1.849 74.396,-2.167 71.179,-4.573 75.046,-5.663 					"/>
				</g>
			</g>
		</g>
		<polygon opacity="0.3" fill="#141414" points="357,0 14.75,27 16,31 		"/>
	</g>
</g>
</svg>
