<?xml version="1.0" encoding="utf-8"?>
<!-- Generator: Adobe Illustrator 16.0.4, SVG Export Plug-In . SVG Version: 6.00 Build 0)  -->
<!DOCTYPE svg PUBLIC "-//W3C//DTD SVG 1.1//EN" "http://www.w3.org/Graphics/SVG/1.1/DTD/svg11.dtd">
<svg version="1.1" id="Layer_1" xmlns="http://www.w3.org/2000/svg" xmlns:xlink="http://www.w3.org/1999/xlink" x="0px" y="0px"
	 width="359px" height="128px" viewBox="0 0 359 128" enable-background="new 0 0 359 128" xml:space="preserve">
<g>
	<defs>
		<rect id="SVGID_1_" x="-1.333" width="362" height="128"/>
	</defs>
	<clipPath id="SVGID_2_">
		<use xlink:href="#SVGID_1_"  overflow="visible"/>
	</clipPath>
	<g clip-path="url(#SVGID_2_)">
		<g>
			<g>
				<polyline fill="#3C6482" points="167.667,-1 333.629,-1 306.473,90.578 168.824,124 169.625,124 32.231,90.578 5.333,-1 
					168.667,-1 				"/>
			</g>
			<g>
				<polyline fill="#2D4051" points="168.667,0 330,0 303.476,89.402 169.025,119 169.808,119 35.606,89.402 9.333,0 169.667,0 				
					"/>
			</g>
			<g>
				<g opacity="0.35">
					<text transform="matrix(1 0 0 1 69.6685 62.229)" font-family="'Cabin-Bold'" font-size="44.1904">McClintock</text>
				</g>
				<g>
					<text transform="matrix(1 0 0 1 68.6685 61.229)" fill="#FFFFFF" font-family="'Cabin-Bold'" font-size="44.1904">McClintock</text>
				</g>
			</g>
			<g opacity="0.9">
				<g opacity="0.35">
					<text transform="matrix(1 0 0 1 70.6665 81.6665)" font-family="'Cabin-Regular'" font-size="16">4TH DISTRICT CONGESSMAN</text>
				</g>
				<g>
					<text transform="matrix(1 0 0 1 69.6665 80.6665)" fill="#EBEBEB" font-family="'Cabin-Regular'" font-size="16">4TH DISTRICT CONGESSMAN</text>
				</g>
			</g>
			<polygon fill="#9B372A" points="2,0 5.271,13.667 7.963,27.334 357.167,0 			"/>
			<polygon fill="#702D28" points="357.167,0 330.417,9.25 332.792,1.875 			"/>
			<polygon fill="#174972" points="95.167,0 104.917,19.75 7.963,27.334 5.271,13.667 2,0 			"/>
			<polygon fill="#FFFFFF" points="101.917,14 300.417,0 261.667,0 97.917,5.75 			"/>
			<polygon fill="#FFFFFF" points="19.008,9.534 21.239,12.876 25.257,12.932 22.768,16.087 23.957,19.926 20.186,18.533 
				16.903,20.849 17.063,16.833 13.845,14.427 17.713,13.337 			"/>
			<polygon fill="#FFFFFF" points="39.008,7.534 41.239,10.876 45.257,10.932 42.768,14.087 43.957,17.926 40.186,16.533 
				36.903,18.849 37.063,14.833 33.845,12.427 37.713,11.337 			"/>
			<polygon fill="#FFFFFF" points="85.008,4.534 87.239,7.876 91.257,7.932 88.768,11.087 89.957,14.926 86.186,13.533 
				82.903,15.849 83.063,11.833 79.845,9.427 83.713,8.337 			"/>
			<polygon fill="#FFFFFF" points="62.008,5.534 64.239,8.876 68.257,8.932 65.768,12.087 66.957,15.926 63.186,14.533 
				59.903,16.849 60.063,12.833 56.845,10.427 60.713,9.337 			"/>
			<g>
				<defs>
					<rect id="SVGID_3_" x="12.667" width="71" height="5"/>
				</defs>
				<clipPath id="SVGID_4_">
					<use xlink:href="#SVGID_3_"  overflow="visible"/>
				</clipPath>
				<g clip-path="url(#SVGID_4_)">
					<polygon fill="#FFFFFF" points="28.008,-6.466 30.239,-3.124 34.257,-3.068 31.768,0.087 32.957,3.926 29.186,2.533 
						25.903,4.849 26.063,0.833 22.845,-1.573 26.713,-2.663 					"/>
					<polygon fill="#FFFFFF" points="51.008,-8.466 53.239,-5.124 57.257,-5.068 54.768,-1.913 55.957,1.926 52.186,0.533 
						48.903,2.849 49.063,-1.167 45.845,-3.573 49.713,-4.663 					"/>
					<polygon fill="#FFFFFF" points="75.008,-9.466 77.239,-6.124 81.257,-6.068 78.768,-2.913 79.957,0.926 76.186,-0.467 
						72.903,1.849 73.063,-2.167 69.845,-4.573 73.713,-5.663 					"/>
				</g>
			</g>
		</g>
		<polygon opacity="0.3" fill="#141414" points="355.667,0 13.417,27 14.667,31 		"/>
	</g>
</g>
</svg>
